TITLE ""
FILE "LR_black_phrase_E_07.mp3" MP3
  TRACK 01 AUDIO
    TITLE "LR_black_phrase_E_07_001"
    INDEX 01 00:00:00
  TRACK 02 AUDIO
    TITLE "LR_black_phrase_E_07_002"
    INDEX 01 00:00:16
  TRACK 03 AUDIO
    TITLE "LR_black_phrase_E_07_003"
    INDEX 01 00:01:45
  TRACK 04 AUDIO
    TITLE "LR_black_phrase_E_07_004"
    INDEX 01 00:01:74
  TRACK 05 AUDIO
    TITLE "LR_black_phrase_E_07_005"
    INDEX 01 00:04:22
  TRACK 06 AUDIO
    TITLE "LR_black_phrase_E_07_006"
    INDEX 01 00:05:02
  TRACK 07 AUDIO
    TITLE "LR_black_phrase_E_07_007"
    INDEX 01 00:07:26
  TRACK 08 AUDIO
    TITLE "LR_black_phrase_E_07_008"
    INDEX 01 00:08:29
  TRACK 09 AUDIO
    TITLE "LR_black_phrase_E_07_009"
    INDEX 01 00:09:56
  TRACK 10 AUDIO
    TITLE "LR_black_phrase_E_07_010"
    INDEX 01 00:10:11
  TRACK 11 AUDIO
    TITLE "LR_black_phrase_E_07_011"
    INDEX 01 00:12:53
  TRACK 12 AUDIO
    TITLE "LR_black_phrase_E_07_012"
    INDEX 01 00:13:33
  TRACK 13 AUDIO
    TITLE "LR_black_phrase_E_07_013"
    INDEX 01 00:15:75
  TRACK 14 AUDIO
    TITLE "LR_black_phrase_E_07_014"
    INDEX 01 00:17:05
  TRACK 15 AUDIO
    TITLE "LR_black_phrase_E_07_015"
    INDEX 01 00:18:47
  TRACK 16 AUDIO
    TITLE "LR_black_phrase_E_07_016"
    INDEX 01 00:19:02
  TRACK 17 AUDIO
    TITLE "LR_black_phrase_E_07_017"
    INDEX 01 00:21:18
  TRACK 18 AUDIO
    TITLE "LR_black_phrase_E_07_018"
    INDEX 01 00:21:71
  TRACK 19 AUDIO
    TITLE "LR_black_phrase_E_07_019"
    INDEX 01 00:24:13
  TRACK 20 AUDIO
    TITLE "LR_black_phrase_E_07_020"
    INDEX 01 00:25:18
  TRACK 21 AUDIO
    TITLE "LR_black_phrase_E_07_021"
    INDEX 01 00:26:45
  TRACK 22 AUDIO
    TITLE "LR_black_phrase_E_07_022"
    INDEX 01 00:27:01
  TRACK 23 AUDIO
    TITLE "LR_black_phrase_E_07_023"
    INDEX 01 00:29:61
  TRACK 24 AUDIO
    TITLE "LR_black_phrase_E_07_024"
    INDEX 01 00:30:41
  TRACK 25 AUDIO
    TITLE "LR_black_phrase_E_07_025"
    INDEX 01 00:33:25
  TRACK 26 AUDIO
    TITLE "LR_black_phrase_E_07_026"
    INDEX 01 00:34:31
  TRACK 27 AUDIO
    TITLE "LR_black_phrase_E_07_027"
    INDEX 01 00:35:28
  TRACK 28 AUDIO
    TITLE "LR_black_phrase_E_07_028"
    INDEX 01 00:35:60
  TRACK 29 AUDIO
    TITLE "LR_black_phrase_E_07_029"
    INDEX 01 00:38:03
  TRACK 30 AUDIO
    TITLE "LR_black_phrase_E_07_030"
    INDEX 01 00:38:58
  TRACK 31 AUDIO
    TITLE "LR_black_phrase_E_07_031"
    INDEX 01 00:41:03
  TRACK 32 AUDIO
    TITLE "LR_black_phrase_E_07_032"
    INDEX 01 00:42:07
  TRACK 33 AUDIO
    TITLE "LR_black_phrase_E_07_033"
    INDEX 01 00:43:40
  TRACK 34 AUDIO
    TITLE "LR_black_phrase_E_07_034"
    INDEX 01 00:43:67
  TRACK 35 AUDIO
    TITLE "LR_black_phrase_E_07_035"
    INDEX 01 00:46:24
  TRACK 36 AUDIO
    TITLE "LR_black_phrase_E_07_036"
    INDEX 01 00:47:06
  TRACK 37 AUDIO
    TITLE "LR_black_phrase_E_07_037"
    INDEX 01 00:49:36
  TRACK 38 AUDIO
    TITLE "LR_black_phrase_E_07_038"
    INDEX 01 00:50:42
  TRACK 39 AUDIO
    TITLE "LR_black_phrase_E_07_039"
    INDEX 01 00:52:05
  TRACK 40 AUDIO
    TITLE "LR_black_phrase_E_07_040"
    INDEX 01 00:52:36
  TRACK 41 AUDIO
    TITLE "LR_black_phrase_E_07_041"
    INDEX 01 00:54:43
  TRACK 42 AUDIO
    TITLE "LR_black_phrase_E_07_042"
    INDEX 01 00:55:25
  TRACK 43 AUDIO
    TITLE "LR_black_phrase_E_07_043"
    INDEX 01 00:57:34
  TRACK 44 AUDIO
    TITLE "LR_black_phrase_E_07_044"
    INDEX 01 00:58:41
  TRACK 45 AUDIO
    TITLE "LR_black_phrase_E_07_045"
    INDEX 01 00:59:58
  TRACK 46 AUDIO
    TITLE "LR_black_phrase_E_07_046"
    INDEX 01 01:00:12
  TRACK 47 AUDIO
    TITLE "LR_black_phrase_E_07_047"
    INDEX 01 01:02:04
  TRACK 48 AUDIO
    TITLE "LR_black_phrase_E_07_048"
    INDEX 01 01:02:54
  TRACK 49 AUDIO
    TITLE "LR_black_phrase_E_07_049"
    INDEX 01 01:04:46
  TRACK 50 AUDIO
    TITLE "LR_black_phrase_E_07_050"
    INDEX 01 01:05:47
  TRACK 51 AUDIO
    TITLE "LR_black_phrase_E_07_051"
    INDEX 01 01:07:11
  TRACK 52 AUDIO
    TITLE "LR_black_phrase_E_07_052"
    INDEX 01 01:07:40
  TRACK 53 AUDIO
    TITLE "LR_black_phrase_E_07_053"
    INDEX 01 01:10:36
  TRACK 54 AUDIO
    TITLE "LR_black_phrase_E_07_054"
    INDEX 01 01:11:14
  TRACK 55 AUDIO
    TITLE "LR_black_phrase_E_07_055"
    INDEX 01 01:14:11
  TRACK 56 AUDIO
    TITLE "LR_black_phrase_E_07_056"
    INDEX 01 01:15:14
  TRACK 57 AUDIO
    TITLE "LR_black_phrase_E_07_057"
    INDEX 01 01:16:41
  TRACK 58 AUDIO
    TITLE "LR_black_phrase_E_07_058"
    INDEX 01 01:16:70
  TRACK 59 AUDIO
    TITLE "LR_black_phrase_E_07_059"
    INDEX 01 01:19:06
  TRACK 60 AUDIO
    TITLE "LR_black_phrase_E_07_060"
    INDEX 01 01:19:59
  TRACK 61 AUDIO
    TITLE "LR_black_phrase_E_07_061"
    INDEX 01 01:21:70
  TRACK 62 AUDIO
    TITLE "LR_black_phrase_E_07_062"
    INDEX 01 01:22:69
  TRACK 63 AUDIO
    TITLE "LR_black_phrase_E_07_063"
    INDEX 01 01:24:15
  TRACK 64 AUDIO
    TITLE "LR_black_phrase_E_07_064"
    INDEX 01 01:24:37
  TRACK 65 AUDIO
    TITLE "LR_black_phrase_E_07_065"
    INDEX 01 01:27:11
  TRACK 66 AUDIO
    TITLE "LR_black_phrase_E_07_066"
    INDEX 01 01:27:56
  TRACK 67 AUDIO
    TITLE "LR_black_phrase_E_07_067"
    INDEX 01 01:30:33
  TRACK 68 AUDIO
    TITLE "LR_black_phrase_E_07_068"
    INDEX 01 01:31:31
  TRACK 69 AUDIO
    TITLE "LR_black_phrase_E_07_069"
    INDEX 01 01:32:44
  TRACK 70 AUDIO
    TITLE "LR_black_phrase_E_07_070"
    INDEX 01 01:32:65
  TRACK 71 AUDIO
    TITLE "LR_black_phrase_E_07_071"
    INDEX 01 01:35:40
  TRACK 72 AUDIO
    TITLE "LR_black_phrase_E_07_072"
    INDEX 01 01:36:10
  TRACK 73 AUDIO
    TITLE "LR_black_phrase_E_07_073"
    INDEX 01 01:38:60
  TRACK 74 AUDIO
    TITLE "LR_black_phrase_E_07_074"
    INDEX 01 01:39:54
  TRACK 75 AUDIO
    TITLE "LR_black_phrase_E_07_075"
    INDEX 01 01:41:15
  TRACK 76 AUDIO
    TITLE "LR_black_phrase_E_07_076"
    INDEX 01 01:41:33
  TRACK 77 AUDIO
    TITLE "LR_black_phrase_E_07_077"
    INDEX 01 01:43:67
  TRACK 78 AUDIO
    TITLE "LR_black_phrase_E_07_078"
    INDEX 01 01:44:37
  TRACK 79 AUDIO
    TITLE "LR_black_phrase_E_07_079"
    INDEX 01 01:46:73
  TRACK 80 AUDIO
    TITLE "LR_black_phrase_E_07_080"
    INDEX 01 01:47:67
  TRACK 81 AUDIO
    TITLE "LR_black_phrase_E_07_081"
    INDEX 01 01:49:13
  TRACK 82 AUDIO
    TITLE "LR_black_phrase_E_07_082"
    INDEX 01 01:49:33
  TRACK 83 AUDIO
    TITLE "LR_black_phrase_E_07_083"
    INDEX 01 01:51:55
  TRACK 84 AUDIO
    TITLE "LR_black_phrase_E_07_084"
    INDEX 01 01:52:25
  TRACK 85 AUDIO
    TITLE "LR_black_phrase_E_07_085"
    INDEX 01 01:54:47
  TRACK 86 AUDIO
    TITLE "LR_black_phrase_E_07_086"
    INDEX 01 01:55:43
  TRACK 87 AUDIO
    TITLE "LR_black_phrase_E_07_087"
    INDEX 01 01:56:50
  TRACK 88 AUDIO
    TITLE "LR_black_phrase_E_07_088"
    INDEX 01 01:56:70
  TRACK 89 AUDIO
    TITLE "LR_black_phrase_E_07_089"
    INDEX 01 01:59:04
  TRACK 90 AUDIO
    TITLE "LR_black_phrase_E_07_090"
    INDEX 01 01:59:45
  TRACK 91 AUDIO
    TITLE "LR_black_phrase_E_07_091"
    INDEX 01 02:01:51
  TRACK 92 AUDIO
    TITLE "LR_black_phrase_E_07_092"
    INDEX 01 02:02:45
  TRACK 93 AUDIO
    TITLE "LR_black_phrase_E_07_093"
    INDEX 01 02:03:70
  TRACK 94 AUDIO
    TITLE "LR_black_phrase_E_07_094"
    INDEX 01 02:04:14
  TRACK 95 AUDIO
    TITLE "LR_black_phrase_E_07_095"
    INDEX 01 02:06:15
  TRACK 96 AUDIO
    TITLE "LR_black_phrase_E_07_096"
    INDEX 01 02:06:58
  TRACK 97 AUDIO
    TITLE "LR_black_phrase_E_07_097"
    INDEX 01 02:08:61
  TRACK 98 AUDIO
    TITLE "LR_black_phrase_E_07_098"
    INDEX 01 02:09:55
  TRACK 99 AUDIO
    TITLE "LR_black_phrase_E_07_099"
    INDEX 01 02:10:72
  TRACK 100 AUDIO
    TITLE "LR_black_phrase_E_07_100"
    INDEX 01 02:11:20
  TRACK 101 AUDIO
    TITLE "LR_black_phrase_E_07_101"
    INDEX 01 02:14:70
  TRACK 102 AUDIO
    TITLE "LR_black_phrase_E_07_102"
    INDEX 01 02:15:46
  TRACK 103 AUDIO
    TITLE "LR_black_phrase_E_07_103"
    INDEX 01 02:19:18
  TRACK 104 AUDIO
    TITLE "LR_black_phrase_E_07_104"
    INDEX 01 02:20:15
  TRACK 105 AUDIO
    TITLE "LR_black_phrase_E_07_105"
    INDEX 01 02:21:34
  TRACK 106 AUDIO
    TITLE "LR_black_phrase_E_07_106"
    INDEX 01 02:21:54
  TRACK 107 AUDIO
    TITLE "LR_black_phrase_E_07_107"
    INDEX 01 02:23:39
  TRACK 108 AUDIO
    TITLE "LR_black_phrase_E_07_108"
    INDEX 01 02:24:09
  TRACK 109 AUDIO
    TITLE "LR_black_phrase_E_07_109"
    INDEX 01 02:25:64
  TRACK 110 AUDIO
    TITLE "LR_black_phrase_E_07_110"
    INDEX 01 02:26:69
  TRACK 111 AUDIO
    TITLE "LR_black_phrase_E_07_111"
    INDEX 01 02:28:33
  TRACK 112 AUDIO
    TITLE "LR_black_phrase_E_07_112"
    INDEX 01 02:28:52
  TRACK 113 AUDIO
    TITLE "LR_black_phrase_E_07_113"
    INDEX 01 02:31:03
  TRACK 114 AUDIO
    TITLE "LR_black_phrase_E_07_114"
    INDEX 01 02:31:51
  TRACK 115 AUDIO
    TITLE "LR_black_phrase_E_07_115"
    INDEX 01 02:33:75
  TRACK 116 AUDIO
    TITLE "LR_black_phrase_E_07_116"
    INDEX 01 02:34:72
  TRACK 117 AUDIO
    TITLE "LR_black_phrase_E_07_117"
    INDEX 01 02:36:16
  TRACK 118 AUDIO
    TITLE "LR_black_phrase_E_07_118"
    INDEX 01 02:36:38
  TRACK 119 AUDIO
    TITLE "LR_black_phrase_E_07_119"
    INDEX 01 02:38:66
  TRACK 120 AUDIO
    TITLE "LR_black_phrase_E_07_120"
    INDEX 01 02:39:40
  TRACK 121 AUDIO
    TITLE "LR_black_phrase_E_07_121"
    INDEX 01 02:41:69
  TRACK 122 AUDIO
    TITLE "LR_black_phrase_E_07_122"
    INDEX 01 02:42:72
  TRACK 123 AUDIO
    TITLE "LR_black_phrase_E_07_123"
    INDEX 01 02:44:04
  TRACK 124 AUDIO
    TITLE "LR_black_phrase_E_07_124"
    INDEX 01 02:44:32
  TRACK 125 AUDIO
    TITLE "LR_black_phrase_E_07_125"
    INDEX 01 02:46:32
  TRACK 126 AUDIO
    TITLE "LR_black_phrase_E_07_126"
    INDEX 01 02:47:10
  TRACK 127 AUDIO
    TITLE "LR_black_phrase_E_07_127"
    INDEX 01 02:49:09
  TRACK 128 AUDIO
    TITLE "LR_black_phrase_E_07_128"
    INDEX 01 02:50:13
  TRACK 129 AUDIO
    TITLE "LR_black_phrase_E_07_129"
    INDEX 01 02:51:40
  TRACK 130 AUDIO
    TITLE "LR_black_phrase_E_07_130"
    INDEX 01 02:51:67
  TRACK 131 AUDIO
    TITLE "LR_black_phrase_E_07_131"
    INDEX 01 02:53:74
  TRACK 132 AUDIO
    TITLE "LR_black_phrase_E_07_132"
    INDEX 01 02:54:52
  TRACK 133 AUDIO
    TITLE "LR_black_phrase_E_07_133"
    INDEX 01 02:56:58
  TRACK 134 AUDIO
    TITLE "LR_black_phrase_E_07_134"
    INDEX 01 02:57:64
  TRACK 135 AUDIO
    TITLE "LR_black_phrase_E_07_135"
    INDEX 01 02:59:17
  TRACK 136 AUDIO
    TITLE "LR_black_phrase_E_07_136"
    INDEX 01 02:59:47
  TRACK 137 AUDIO
    TITLE "LR_black_phrase_E_07_137"
    INDEX 01 03:01:48
  TRACK 138 AUDIO
    TITLE "LR_black_phrase_E_07_138"
    INDEX 01 03:02:28
  TRACK 139 AUDIO
    TITLE "LR_black_phrase_E_07_139"
    INDEX 01 03:04:28
  TRACK 140 AUDIO
    TITLE "LR_black_phrase_E_07_140"
    INDEX 01 03:05:32
  TRACK 141 AUDIO
    TITLE "LR_black_phrase_E_07_141"
    INDEX 01 03:06:45
  TRACK 142 AUDIO
    TITLE "LR_black_phrase_E_07_142"
    INDEX 01 03:06:74
  TRACK 143 AUDIO
    TITLE "LR_black_phrase_E_07_143"
    INDEX 01 03:08:63
  TRACK 144 AUDIO
    TITLE "LR_black_phrase_E_07_144"
    INDEX 01 03:09:47
  TRACK 145 AUDIO
    TITLE "LR_black_phrase_E_07_145"
    INDEX 01 03:11:32
  TRACK 146 AUDIO
    TITLE "LR_black_phrase_E_07_146"
    INDEX 01 03:12:40
  TRACK 147 AUDIO
    TITLE "LR_black_phrase_E_07_147"
    INDEX 01 03:13:51
  TRACK 148 AUDIO
    TITLE "LR_black_phrase_E_07_148"
    INDEX 01 03:14:05
  TRACK 149 AUDIO
    TITLE "LR_black_phrase_E_07_149"
    INDEX 01 03:16:53
  TRACK 150 AUDIO
    TITLE "LR_black_phrase_E_07_150"
    INDEX 01 03:17:31
  TRACK 151 AUDIO
    TITLE "LR_black_phrase_E_07_151"
    INDEX 01 03:20:02
  TRACK 152 AUDIO
    TITLE "LR_black_phrase_E_07_152"
    INDEX 01 03:21:05
  TRACK 153 AUDIO
    TITLE "LR_black_phrase_E_07_153"
    INDEX 01 03:22:22
  TRACK 154 AUDIO
    TITLE "LR_black_phrase_E_07_154"
    INDEX 01 03:22:52
  TRACK 155 AUDIO
    TITLE "LR_black_phrase_E_07_155"
    INDEX 01 03:24:68
  TRACK 156 AUDIO
    TITLE "LR_black_phrase_E_07_156"
    INDEX 01 03:25:48
  TRACK 157 AUDIO
    TITLE "LR_black_phrase_E_07_157"
    INDEX 01 03:27:63
  TRACK 158 AUDIO
    TITLE "LR_black_phrase_E_07_158"
    INDEX 01 03:28:68
  TRACK 159 AUDIO
    TITLE "LR_black_phrase_E_07_159"
    INDEX 01 03:30:16
  TRACK 160 AUDIO
    TITLE "LR_black_phrase_E_07_160"
    INDEX 01 03:30:45
  TRACK 161 AUDIO
    TITLE "LR_black_phrase_E_07_161"
    INDEX 01 03:33:48
  TRACK 162 AUDIO
    TITLE "LR_black_phrase_E_07_162"
    INDEX 01 03:34:26
  TRACK 163 AUDIO
    TITLE "LR_black_phrase_E_07_163"
    INDEX 01 03:37:28
  TRACK 164 AUDIO
    TITLE "LR_black_phrase_E_07_164"
    INDEX 01 03:38:31
  TRACK 165 AUDIO
    TITLE "LR_black_phrase_E_07_165"
    INDEX 01 03:39:54
  TRACK 166 AUDIO
    TITLE "LR_black_phrase_E_07_166"
    INDEX 01 03:40:07
  TRACK 167 AUDIO
    TITLE "LR_black_phrase_E_07_167"
    INDEX 01 03:41:65
  TRACK 168 AUDIO
    TITLE "LR_black_phrase_E_07_168"
    INDEX 01 03:42:43
  TRACK 169 AUDIO
    TITLE "LR_black_phrase_E_07_169"
    INDEX 01 03:44:24
  TRACK 170 AUDIO
    TITLE "LR_black_phrase_E_07_170"
    INDEX 01 03:45:27
  TRACK 171 AUDIO
    TITLE "LR_black_phrase_E_07_171"
    INDEX 01 03:46:46
  TRACK 172 AUDIO
    TITLE "LR_black_phrase_E_07_172"
    INDEX 01 03:46:74
  TRACK 173 AUDIO
    TITLE "LR_black_phrase_E_07_173"
    INDEX 01 03:49:72
  TRACK 174 AUDIO
    TITLE "LR_black_phrase_E_07_174"
    INDEX 01 03:50:54
  TRACK 175 AUDIO
    TITLE "LR_black_phrase_E_07_175"
    INDEX 01 03:53:52
  TRACK 176 AUDIO
    TITLE "LR_black_phrase_E_07_176"
    INDEX 01 03:54:60
  TRACK 177 AUDIO
    TITLE "LR_black_phrase_E_07_177"
    INDEX 01 03:56:04
  TRACK 178 AUDIO
    TITLE "LR_black_phrase_E_07_178"
    INDEX 01 03:56:35
  TRACK 179 AUDIO
    TITLE "LR_black_phrase_E_07_179"
    INDEX 01 03:59:08
  TRACK 180 AUDIO
    TITLE "LR_black_phrase_E_07_180"
    INDEX 01 03:59:67
  TRACK 181 AUDIO
    TITLE "LR_black_phrase_E_07_181"
    INDEX 01 04:02:40
  TRACK 182 AUDIO
    TITLE "LR_black_phrase_E_07_182"
    INDEX 01 04:03:43
  TRACK 183 AUDIO
    TITLE "LR_black_phrase_E_07_183"
    INDEX 01 04:04:56
  TRACK 184 AUDIO
    TITLE "LR_black_phrase_E_07_184"
    INDEX 01 04:05:09
  TRACK 185 AUDIO
    TITLE "LR_black_phrase_E_07_185"
    INDEX 01 04:07:43
  TRACK 186 AUDIO
    TITLE "LR_black_phrase_E_07_186"
    INDEX 01 04:08:15
  TRACK 187 AUDIO
    TITLE "LR_black_phrase_E_07_187"
    INDEX 01 04:10:51
  TRACK 188 AUDIO
    TITLE "LR_black_phrase_E_07_188"
    INDEX 01 04:11:46
  TRACK 189 AUDIO
    TITLE "LR_black_phrase_E_07_189"
    INDEX 01 04:12:61
  TRACK 190 AUDIO
    TITLE "LR_black_phrase_E_07_190"
    INDEX 01 04:13:10
  TRACK 191 AUDIO
    TITLE "LR_black_phrase_E_07_191"
    INDEX 01 04:14:66
  TRACK 192 AUDIO
    TITLE "LR_black_phrase_E_07_192"
    INDEX 01 04:15:36
  TRACK 193 AUDIO
    TITLE "LR_black_phrase_E_07_193"
    INDEX 01 04:17:20
  TRACK 194 AUDIO
    TITLE "LR_black_phrase_E_07_194"
    INDEX 01 04:18:11
  TRACK 195 AUDIO
    TITLE "LR_black_phrase_E_07_195"
    INDEX 01 04:19:34
  TRACK 196 AUDIO
    TITLE "LR_black_phrase_E_07_196"
    INDEX 01 04:19:58
  TRACK 197 AUDIO
    TITLE "LR_black_phrase_E_07_197"
    INDEX 01 04:22:03
  TRACK 198 AUDIO
    TITLE "LR_black_phrase_E_07_198"
    INDEX 01 04:22:46
  TRACK 199 AUDIO
    TITLE "LR_black_phrase_E_07_199"
    INDEX 01 04:24:67
  TRACK 200 AUDIO
    TITLE "LR_black_phrase_E_07_200"
    INDEX 01 04:25:62
  TRACK 201 AUDIO
    TITLE "LR_black_phrase_E_07_201"
    INDEX 01 04:27:08
  TRACK 202 AUDIO
    TITLE "LR_black_phrase_E_07_202"
    INDEX 01 04:27:32
  TRACK 203 AUDIO
    TITLE "LR_black_phrase_E_07_203"
    INDEX 01 04:29:46
  TRACK 204 AUDIO
    TITLE "LR_black_phrase_E_07_204"
    INDEX 01 04:30:14
  TRACK 205 AUDIO
    TITLE "LR_black_phrase_E_07_205"
    INDEX 01 04:32:29
  TRACK 206 AUDIO
    TITLE "LR_black_phrase_E_07_206"
    INDEX 01 04:33:22
  TRACK 207 AUDIO
    TITLE "LR_black_phrase_E_07_207"
    INDEX 01 04:34:47
  TRACK 208 AUDIO
    TITLE "LR_black_phrase_E_07_208"
    INDEX 01 04:34:67
  TRACK 209 AUDIO
    TITLE "LR_black_phrase_E_07_209"
    INDEX 01 04:37:10
  TRACK 210 AUDIO
    TITLE "LR_black_phrase_E_07_210"
    INDEX 01 04:37:57
  TRACK 211 AUDIO
    TITLE "LR_black_phrase_E_07_211"
    INDEX 01 04:39:74
  TRACK 212 AUDIO
    TITLE "LR_black_phrase_E_07_212"
    INDEX 01 04:40:72
  TRACK 213 AUDIO
    TITLE "LR_black_phrase_E_07_213"
    INDEX 01 04:42:27
  TRACK 214 AUDIO
    TITLE "LR_black_phrase_E_07_214"
    INDEX 01 04:42:53
  TRACK 215 AUDIO
    TITLE "LR_black_phrase_E_07_215"
    INDEX 01 04:44:61
  TRACK 216 AUDIO
    TITLE "LR_black_phrase_E_07_216"
    INDEX 01 04:45:35
  TRACK 217 AUDIO
    TITLE "LR_black_phrase_E_07_217"
    INDEX 01 04:47:40
  TRACK 218 AUDIO
    TITLE "LR_black_phrase_E_07_218"
    INDEX 01 04:48:42
  TRACK 219 AUDIO
    TITLE "LR_black_phrase_E_07_219"
    INDEX 01 04:49:65
  TRACK 220 AUDIO
    TITLE "LR_black_phrase_E_07_220"
    INDEX 01 04:50:19
  TRACK 221 AUDIO
    TITLE "LR_black_phrase_E_07_221"
    INDEX 01 04:52:53
  TRACK 222 AUDIO
    TITLE "LR_black_phrase_E_07_222"
    INDEX 01 04:53:27
  TRACK 223 AUDIO
    TITLE "LR_black_phrase_E_07_223"
    INDEX 01 04:55:59
  TRACK 224 AUDIO
    TITLE "LR_black_phrase_E_07_224"
    INDEX 01 04:56:55
  TRACK 225 AUDIO
    TITLE "LR_black_phrase_E_07_225"
    INDEX 01 04:57:58
  TRACK 226 AUDIO
    TITLE "LR_black_phrase_E_07_226"
    INDEX 01 04:58:07
  TRACK 227 AUDIO
    TITLE "LR_black_phrase_E_07_227"
    INDEX 01 04:59:65
  TRACK 228 AUDIO
    TITLE "LR_black_phrase_E_07_228"
    INDEX 01 05:00:45
  TRACK 229 AUDIO
    TITLE "LR_black_phrase_E_07_229"
    INDEX 01 05:02:28
  TRACK 230 AUDIO
    TITLE "LR_black_phrase_E_07_230"
    INDEX 01 05:03:31
  TRACK 231 AUDIO
    TITLE "LR_black_phrase_E_07_231"
    INDEX 01 05:04:64
  TRACK 232 AUDIO
    TITLE "LR_black_phrase_E_07_232"
    INDEX 01 05:05:13
  TRACK 233 AUDIO
    TITLE "LR_black_phrase_E_07_233"
    INDEX 01 05:07:10
  TRACK 234 AUDIO
    TITLE "LR_black_phrase_E_07_234"
    INDEX 01 05:07:57
  TRACK 235 AUDIO
    TITLE "LR_black_phrase_E_07_235"
    INDEX 01 05:09:57
  TRACK 236 AUDIO
    TITLE "LR_black_phrase_E_07_236"
    INDEX 01 05:10:57
  TRACK 237 AUDIO
    TITLE "LR_black_phrase_E_07_237"
    INDEX 01 05:12:05
  TRACK 238 AUDIO
    TITLE "LR_black_phrase_E_07_238"
    INDEX 01 05:12:24
  TRACK 239 AUDIO
    TITLE "LR_black_phrase_E_07_239"
    INDEX 01 05:14:29
  TRACK 240 AUDIO
    TITLE "LR_black_phrase_E_07_240"
    INDEX 01 05:14:74
  TRACK 241 AUDIO
    TITLE "LR_black_phrase_E_07_241"
    INDEX 01 05:17:04
  TRACK 242 AUDIO
    TITLE "LR_black_phrase_E_07_242"
    INDEX 01 05:18:06
  TRACK 243 AUDIO
    TITLE "LR_black_phrase_E_07_243"
    INDEX 01 05:19:36
  TRACK 244 AUDIO
    TITLE "LR_black_phrase_E_07_244"
    INDEX 01 05:19:48
  TRACK 245 AUDIO
    TITLE "LR_black_phrase_E_07_245"
    INDEX 01 05:21:21
  TRACK 246 AUDIO
    TITLE "LR_black_phrase_E_07_246"
    INDEX 01 05:21:67
  TRACK 247 AUDIO
    TITLE "LR_black_phrase_E_07_247"
    INDEX 01 05:23:38
  TRACK 248 AUDIO
    TITLE "LR_black_phrase_E_07_248"
    INDEX 01 05:24:43
  TRACK 249 AUDIO
    TITLE "LR_black_phrase_E_07_249"
    INDEX 01 05:25:72
  TRACK 250 AUDIO
    TITLE "LR_black_phrase_E_07_250"
    INDEX 01 05:26:29
  TRACK 251 AUDIO
    TITLE "LR_black_phrase_E_07_251"
    INDEX 01 05:28:55
  TRACK 252 AUDIO
    TITLE "LR_black_phrase_E_07_252"
    INDEX 01 05:29:35
  TRACK 253 AUDIO
    TITLE "LR_black_phrase_E_07_253"
    INDEX 01 05:31:61
  TRACK 254 AUDIO
    TITLE "LR_black_phrase_E_07_254"
    INDEX 01 05:32:66
  TRACK 255 AUDIO
    TITLE "LR_black_phrase_E_07_255"
    INDEX 01 05:34:10
  TRACK 256 AUDIO
    TITLE "LR_black_phrase_E_07_256"
    INDEX 01 05:34:40
  TRACK 257 AUDIO
    TITLE "LR_black_phrase_E_07_257"
    INDEX 01 05:36:58
  TRACK 258 AUDIO
    TITLE "LR_black_phrase_E_07_258"
    INDEX 01 05:37:38
  TRACK 259 AUDIO
    TITLE "LR_black_phrase_E_07_259"
    INDEX 01 05:39:55
  TRACK 260 AUDIO
    TITLE "LR_black_phrase_E_07_260"
    INDEX 01 05:40:60
  TRACK 261 AUDIO
    TITLE "LR_black_phrase_E_07_261"
    INDEX 01 05:41:71
  TRACK 262 AUDIO
    TITLE "LR_black_phrase_E_07_262"
    INDEX 01 05:42:26
  TRACK 263 AUDIO
    TITLE "LR_black_phrase_E_07_263"
    INDEX 01 05:44:19
  TRACK 264 AUDIO
    TITLE "LR_black_phrase_E_07_264"
    INDEX 01 05:44:72
  TRACK 265 AUDIO
    TITLE "LR_black_phrase_E_07_265"
    INDEX 01 05:46:66
  TRACK 266 AUDIO
    TITLE "LR_black_phrase_E_07_266"
    INDEX 01 05:47:70
  TRACK 267 AUDIO
    TITLE "LR_black_phrase_E_07_267"
    INDEX 01 05:49:30
  TRACK 268 AUDIO
    TITLE "LR_black_phrase_E_07_268"
    INDEX 01 05:49:57
  TRACK 269 AUDIO
    TITLE "LR_black_phrase_E_07_269"
    INDEX 01 05:52:26
  TRACK 270 AUDIO
    TITLE "LR_black_phrase_E_07_270"
    INDEX 01 05:53:04
  TRACK 271 AUDIO
    TITLE "LR_black_phrase_E_07_271"
    INDEX 01 05:55:46
  TRACK 272 AUDIO
    TITLE "LR_black_phrase_E_07_272"
    INDEX 01 05:56:53
  TRACK 273 AUDIO
    TITLE "LR_black_phrase_E_07_273"
    INDEX 01 05:57:68
  TRACK 274 AUDIO
    TITLE "LR_black_phrase_E_07_274"
    INDEX 01 05:58:23
  TRACK 275 AUDIO
    TITLE "LR_black_phrase_E_07_275"
    INDEX 01 06:00:35
  TRACK 276 AUDIO
    TITLE "LR_black_phrase_E_07_276"
    INDEX 01 06:01:15
  TRACK 277 AUDIO
    TITLE "LR_black_phrase_E_07_277"
    INDEX 01 06:03:28
  TRACK 278 AUDIO
    TITLE "LR_black_phrase_E_07_278"
    INDEX 01 06:04:31
  TRACK 279 AUDIO
    TITLE "LR_black_phrase_E_07_279"
    INDEX 01 06:05:72
  TRACK 280 AUDIO
    TITLE "LR_black_phrase_E_07_280"
    INDEX 01 06:06:24
  TRACK 281 AUDIO
    TITLE "LR_black_phrase_E_07_281"
    INDEX 01 06:08:50
  TRACK 282 AUDIO
    TITLE "LR_black_phrase_E_07_282"
    INDEX 01 06:09:30
  TRACK 283 AUDIO
    TITLE "LR_black_phrase_E_07_283"
    INDEX 01 06:11:57
  TRACK 284 AUDIO
    TITLE "LR_black_phrase_E_07_284"
    INDEX 01 06:12:60
  TRACK 285 AUDIO
    TITLE "LR_black_phrase_E_07_285"
    INDEX 01 06:14:06
  TRACK 286 AUDIO
    TITLE "LR_black_phrase_E_07_286"
    INDEX 01 06:14:37
  TRACK 287 AUDIO
    TITLE "LR_black_phrase_E_07_287"
    INDEX 01 06:16:36
  TRACK 288 AUDIO
    TITLE "LR_black_phrase_E_07_288"
    INDEX 01 06:17:18
  TRACK 289 AUDIO
    TITLE "LR_black_phrase_E_07_289"
    INDEX 01 06:19:15
  TRACK 290 AUDIO
    TITLE "LR_black_phrase_E_07_290"
    INDEX 01 06:20:22
  TRACK 291 AUDIO
    TITLE "LR_black_phrase_E_07_291"
    INDEX 01 06:21:65
  TRACK 292 AUDIO
    TITLE "LR_black_phrase_E_07_292"
    INDEX 01 06:22:21
  TRACK 293 AUDIO
    TITLE "LR_black_phrase_E_07_293"
    INDEX 01 06:24:48
  TRACK 294 AUDIO
    TITLE "LR_black_phrase_E_07_294"
    INDEX 01 06:25:29
  TRACK 295 AUDIO
    TITLE "LR_black_phrase_E_07_295"
    INDEX 01 06:27:56
  TRACK 296 AUDIO
    TITLE "LR_black_phrase_E_07_296"
    INDEX 01 06:28:59
  TRACK 297 AUDIO
    TITLE "LR_black_phrase_E_07_297"
    INDEX 01 06:30:03
  TRACK 298 AUDIO
    TITLE "LR_black_phrase_E_07_298"
    INDEX 01 06:30:32
  TRACK 299 AUDIO
    TITLE "LR_black_phrase_E_07_299"
    INDEX 01 06:32:14
  TRACK 300 AUDIO
    TITLE "LR_black_phrase_E_07_300"
    INDEX 01 06:32:72
  TRACK 301 AUDIO
    TITLE "LR_black_phrase_E_07_301"
    INDEX 01 06:34:54
  TRACK 302 AUDIO
    TITLE "LR_black_phrase_E_07_302"
    INDEX 01 06:35:57
  TRACK 303 AUDIO
    TITLE "LR_black_phrase_E_07_303"
    INDEX 01 06:37:01
  TRACK 304 AUDIO
    TITLE "LR_black_phrase_E_07_304"
    INDEX 01 06:37:25
  TRACK 305 AUDIO
    TITLE "LR_black_phrase_E_07_305"
    INDEX 01 06:39:31
  TRACK 306 AUDIO
    TITLE "LR_black_phrase_E_07_306"
    INDEX 01 06:40:01
  TRACK 307 AUDIO
    TITLE "LR_black_phrase_E_07_307"
    INDEX 01 06:42:10
  TRACK 308 AUDIO
    TITLE "LR_black_phrase_E_07_308"
    INDEX 01 06:43:06
  TRACK 309 AUDIO
    TITLE "LR_black_phrase_E_07_309"
    INDEX 01 06:44:29
  TRACK 310 AUDIO
    TITLE "LR_black_phrase_E_07_310"
    INDEX 01 06:44:50
  TRACK 311 AUDIO
    TITLE "LR_black_phrase_E_07_311"
    INDEX 01 06:47:27
  TRACK 312 AUDIO
    TITLE "LR_black_phrase_E_07_312"
    INDEX 01 06:47:72
  TRACK 313 AUDIO
    TITLE "LR_black_phrase_E_07_313"
    INDEX 01 06:50:49
  TRACK 314 AUDIO
    TITLE "LR_black_phrase_E_07_314"
    INDEX 01 06:51:44
  TRACK 315 AUDIO
    TITLE "LR_black_phrase_E_07_315"
    INDEX 01 06:52:67
  TRACK 316 AUDIO
    TITLE "LR_black_phrase_E_07_316"
    INDEX 01 06:53:12
  TRACK 317 AUDIO
    TITLE "LR_black_phrase_E_07_317"
    INDEX 01 06:55:42
  TRACK 318 AUDIO
    TITLE "LR_black_phrase_E_07_318"
    INDEX 01 06:56:16
  TRACK 319 AUDIO
    TITLE "LR_black_phrase_E_07_319"
    INDEX 01 06:58:46
  TRACK 320 AUDIO
    TITLE "LR_black_phrase_E_07_320"
    INDEX 01 06:59:48
  TRACK 321 AUDIO
    TITLE "LR_black_phrase_E_07_321"
    INDEX 01 07:00:69
  TRACK 322 AUDIO
    TITLE "LR_black_phrase_E_07_322"
    INDEX 01 07:01:11
  TRACK 323 AUDIO
    TITLE "LR_black_phrase_E_07_323"
    INDEX 01 07:03:48
  TRACK 324 AUDIO
    TITLE "LR_black_phrase_E_07_324"
    INDEX 01 07:04:20
  TRACK 325 AUDIO
    TITLE "LR_black_phrase_E_07_325"
    INDEX 01 07:06:54
  TRACK 326 AUDIO
    TITLE "LR_black_phrase_E_07_326"
    INDEX 01 07:07:47
  TRACK 327 AUDIO
    TITLE "LR_black_phrase_E_07_327"
    INDEX 01 07:08:68
  TRACK 328 AUDIO
    TITLE "LR_black_phrase_E_07_328"
    INDEX 01 07:09:13
  TRACK 329 AUDIO
    TITLE "LR_black_phrase_E_07_329"
    INDEX 01 07:11:28
  TRACK 330 AUDIO
    TITLE "LR_black_phrase_E_07_330"
    INDEX 01 07:11:71
  TRACK 331 AUDIO
    TITLE "LR_black_phrase_E_07_331"
    INDEX 01 07:14:08
  TRACK 332 AUDIO
    TITLE "LR_black_phrase_E_07_332"
    INDEX 01 07:15:06
  TRACK 333 AUDIO
    TITLE "LR_black_phrase_E_07_333"
    INDEX 01 07:16:38
  TRACK 334 AUDIO
    TITLE "LR_black_phrase_E_07_334"
    INDEX 01 07:16:58
  TRACK 335 AUDIO
    TITLE "LR_black_phrase_E_07_335"
    INDEX 01 07:18:57
  TRACK 336 AUDIO
    TITLE "LR_black_phrase_E_07_336"
    INDEX 01 07:19:27
  TRACK 337 AUDIO
    TITLE "LR_black_phrase_E_07_337"
    INDEX 01 07:21:26
  TRACK 338 AUDIO
    TITLE "LR_black_phrase_E_07_338"
    INDEX 01 07:22:21
  TRACK 339 AUDIO
    TITLE "LR_black_phrase_E_07_339"
    INDEX 01 07:23:31
  TRACK 340 AUDIO
    TITLE "LR_black_phrase_E_07_340"
    INDEX 01 07:23:46
  TRACK 341 AUDIO
    TITLE "LR_black_phrase_E_07_341"
    INDEX 01 07:26:55
  TRACK 342 AUDIO
    TITLE "LR_black_phrase_E_07_342"
    INDEX 01 07:27:19
  TRACK 343 AUDIO
    TITLE "LR_black_phrase_E_07_343"
    INDEX 01 07:30:27
  TRACK 344 AUDIO
    TITLE "LR_black_phrase_E_07_344"
    INDEX 01 07:31:20
  TRACK 345 AUDIO
    TITLE "LR_black_phrase_E_07_345"
    INDEX 01 07:32:41
  TRACK 346 AUDIO
    TITLE "LR_black_phrase_E_07_346"
    INDEX 01 07:32:63
  TRACK 347 AUDIO
    TITLE "LR_black_phrase_E_07_347"
    INDEX 01 07:35:40
  TRACK 348 AUDIO
    TITLE "LR_black_phrase_E_07_348"
    INDEX 01 07:36:14
  TRACK 349 AUDIO
    TITLE "LR_black_phrase_E_07_349"
    INDEX 01 07:38:67
  TRACK 350 AUDIO
    TITLE "LR_black_phrase_E_07_350"
    INDEX 01 07:39:75
  TRACK 351 AUDIO
    TITLE "LR_black_phrase_E_07_351"
    INDEX 01 07:41:17
  TRACK 352 AUDIO
    TITLE "LR_black_phrase_E_07_352"
    INDEX 01 07:41:42
  TRACK 353 AUDIO
    TITLE "LR_black_phrase_E_07_353"
    INDEX 01 07:43:71
  TRACK 354 AUDIO
    TITLE "LR_black_phrase_E_07_354"
    INDEX 01 07:44:39
  TRACK 355 AUDIO
    TITLE "LR_black_phrase_E_07_355"
    INDEX 01 07:46:67
  TRACK 356 AUDIO
    TITLE "LR_black_phrase_E_07_356"
    INDEX 01 07:47:63
  TRACK 357 AUDIO
    TITLE "LR_black_phrase_E_07_357"
    INDEX 01 07:48:60
  TRACK 358 AUDIO
    TITLE "LR_black_phrase_E_07_358"
    INDEX 01 07:49:05
  TRACK 359 AUDIO
    TITLE "LR_black_phrase_E_07_359"
    INDEX 01 07:50:67
  TRACK 360 AUDIO
    TITLE "LR_black_phrase_E_07_360"
    INDEX 01 07:51:37
  TRACK 361 AUDIO
    TITLE "LR_black_phrase_E_07_361"
    INDEX 01 07:53:24
  TRACK 362 AUDIO
    TITLE "LR_black_phrase_E_07_362"
    INDEX 01 07:54:27
  TRACK 363 AUDIO
    TITLE "LR_black_phrase_E_07_363"
    INDEX 01 07:55:42
  TRACK 364 AUDIO
    TITLE "LR_black_phrase_E_07_364"
    INDEX 01 07:55:72
  TRACK 365 AUDIO
    TITLE "LR_black_phrase_E_07_365"
    INDEX 01 07:58:45
  TRACK 366 AUDIO
    TITLE "LR_black_phrase_E_07_366"
    INDEX 01 07:59:25
  TRACK 367 AUDIO
    TITLE "LR_black_phrase_E_07_367"
    INDEX 01 08:01:72
  TRACK 368 AUDIO
    TITLE "LR_black_phrase_E_07_368"
    INDEX 01 08:03:03
  TRACK 369 AUDIO
    TITLE "LR_black_phrase_E_07_369"
    INDEX 01 08:04:10
  TRACK 370 AUDIO
    TITLE "LR_black_phrase_E_07_370"
    INDEX 01 08:04:39
  TRACK 371 AUDIO
    TITLE "LR_black_phrase_E_07_371"
    INDEX 01 08:06:34
  TRACK 372 AUDIO
    TITLE "LR_black_phrase_E_07_372"
    INDEX 01 08:07:14
  TRACK 373 AUDIO
    TITLE "LR_black_phrase_E_07_373"
    INDEX 01 08:09:09
  TRACK 374 AUDIO
    TITLE "LR_black_phrase_E_07_374"
    INDEX 01 08:10:13
  TRACK 375 AUDIO
    TITLE "LR_black_phrase_E_07_375"
    INDEX 01 08:11:45
  TRACK 376 AUDIO
    TITLE "LR_black_phrase_E_07_376"
    INDEX 01 08:11:75
  TRACK 377 AUDIO
    TITLE "LR_black_phrase_E_07_377"
    INDEX 01 08:13:68
  TRACK 378 AUDIO
    TITLE "LR_black_phrase_E_07_378"
    INDEX 01 08:14:48
  TRACK 379 AUDIO
    TITLE "LR_black_phrase_E_07_379"
    INDEX 01 08:16:41
  TRACK 380 AUDIO
    TITLE "LR_black_phrase_E_07_380"
    INDEX 01 08:17:44
  TRACK 381 AUDIO
    TITLE "LR_black_phrase_E_07_381"
    INDEX 01 08:18:67
  TRACK 382 AUDIO
    TITLE "LR_black_phrase_E_07_382"
    INDEX 01 08:19:21
  TRACK 383 AUDIO
    TITLE "LR_black_phrase_E_07_383"
    INDEX 01 08:21:42
  TRACK 384 AUDIO
    TITLE "LR_black_phrase_E_07_384"
    INDEX 01 08:22:22
  TRACK 385 AUDIO
    TITLE "LR_black_phrase_E_07_385"
    INDEX 01 08:24:42
  TRACK 386 AUDIO
    TITLE "LR_black_phrase_E_07_386"
    INDEX 01 08:25:47
  TRACK 387 AUDIO
    TITLE "LR_black_phrase_E_07_387"
    INDEX 01 08:26:68
  TRACK 388 AUDIO
    TITLE "LR_black_phrase_E_07_388"
    INDEX 01 08:27:23
  TRACK 389 AUDIO
    TITLE "LR_black_phrase_E_07_389"
    INDEX 01 08:29:08
  TRACK 390 AUDIO
    TITLE "LR_black_phrase_E_07_390"
    INDEX 01 08:29:63
  TRACK 391 AUDIO
    TITLE "LR_black_phrase_E_07_391"
    INDEX 01 08:31:48
  TRACK 392 AUDIO
    TITLE "LR_black_phrase_E_07_392"
    INDEX 01 08:32:51
  TRACK 393 AUDIO
    TITLE "LR_black_phrase_E_07_393"
    INDEX 01 08:33:63
  TRACK 394 AUDIO
    TITLE "LR_black_phrase_E_07_394"
    INDEX 01 08:34:17
  TRACK 395 AUDIO
    TITLE "LR_black_phrase_E_07_395"
    INDEX 01 08:36:10
  TRACK 396 AUDIO
    TITLE "LR_black_phrase_E_07_396"
    INDEX 01 08:36:63
  TRACK 397 AUDIO
    TITLE "LR_black_phrase_E_07_397"
    INDEX 01 08:38:54
  TRACK 398 AUDIO
    TITLE "LR_black_phrase_E_07_398"
    INDEX 01 08:39:59
  TRACK 399 AUDIO
    TITLE "LR_black_phrase_E_07_399"
    INDEX 01 08:41:03
  TRACK 400 AUDIO
    TITLE "LR_black_phrase_E_07_400"
    INDEX 01 08:41:35
  TRACK 401 AUDIO
    TITLE "LR_black_phrase_E_07_401"
    INDEX 01 08:43:28
  TRACK 402 AUDIO
    TITLE "LR_black_phrase_E_07_402"
    INDEX 01 08:44:08
  TRACK 403 AUDIO
    TITLE "LR_black_phrase_E_07_403"
    INDEX 01 08:46:03
  TRACK 404 AUDIO
    TITLE "LR_black_phrase_E_07_404"
    INDEX 01 08:47:08
  TRACK 405 AUDIO
    TITLE "LR_black_phrase_E_07_405"
    INDEX 01 08:48:19
  TRACK 406 AUDIO
    TITLE "LR_black_phrase_E_07_406"
    INDEX 01 08:48:48
  TRACK 407 AUDIO
    TITLE "LR_black_phrase_E_07_407"
    INDEX 01 08:50:55
  TRACK 408 AUDIO
    TITLE "LR_black_phrase_E_07_408"
    INDEX 01 08:51:35
  TRACK 409 AUDIO
    TITLE "LR_black_phrase_E_07_409"
    INDEX 01 08:53:42
  TRACK 410 AUDIO
    TITLE "LR_black_phrase_E_07_410"
    INDEX 01 08:54:41
  TRACK 411 AUDIO
    TITLE "LR_black_phrase_E_07_411"
    INDEX 01 08:55:54
  TRACK 412 AUDIO
    TITLE "LR_black_phrase_E_07_412"
    INDEX 01 08:56:09
  TRACK 413 AUDIO
    TITLE "LR_black_phrase_E_07_413"
    INDEX 01 08:58:41
  TRACK 414 AUDIO
    TITLE "LR_black_phrase_E_07_414"
    INDEX 01 08:59:23
  TRACK 415 AUDIO
    TITLE "LR_black_phrase_E_07_415"
    INDEX 01 09:01:53
  TRACK 416 AUDIO
    TITLE "LR_black_phrase_E_07_416"
    INDEX 01 09:02:60
  TRACK 417 AUDIO
    TITLE "LR_black_phrase_E_07_417"
    INDEX 01 09:04:01
  TRACK 418 AUDIO
    TITLE "LR_black_phrase_E_07_418"
    INDEX 01 09:04:28
  TRACK 419 AUDIO
    TITLE "LR_black_phrase_E_07_419"
    INDEX 01 09:06:13
  TRACK 420 AUDIO
    TITLE "LR_black_phrase_E_07_420"
    INDEX 01 09:06:70
  TRACK 421 AUDIO
    TITLE "LR_black_phrase_E_07_421"
    INDEX 01 09:08:57
  TRACK 422 AUDIO
    TITLE "LR_black_phrase_E_07_422"
    INDEX 01 09:09:62
  TRACK 423 AUDIO
    TITLE "LR_black_phrase_E_07_423"
    INDEX 01 09:11:18
  TRACK 424 AUDIO
    TITLE "LR_black_phrase_E_07_424"
    INDEX 01 09:11:40
  TRACK 425 AUDIO
    TITLE "LR_black_phrase_E_07_425"
    INDEX 01 09:13:45
  TRACK 426 AUDIO
    TITLE "LR_black_phrase_E_07_426"
    INDEX 01 09:14:15
  TRACK 427 AUDIO
    TITLE "LR_black_phrase_E_07_427"
    INDEX 01 09:16:23
  TRACK 428 AUDIO
    TITLE "LR_black_phrase_E_07_428"
    INDEX 01 09:17:17
  TRACK 429 AUDIO
    TITLE "LR_black_phrase_E_07_429"
    INDEX 01 09:18:40
  TRACK 430 AUDIO
    TITLE "LR_black_phrase_E_07_430"
    INDEX 01 09:18:65
  TRACK 431 AUDIO
    TITLE "LR_black_phrase_E_07_431"
    INDEX 01 09:21:03
  TRACK 432 AUDIO
    TITLE "LR_black_phrase_E_07_432"
    INDEX 01 09:21:48
  TRACK 433 AUDIO
    TITLE "LR_black_phrase_E_07_433"
    INDEX 01 09:23:59
  TRACK 434 AUDIO
    TITLE "LR_black_phrase_E_07_434"
    INDEX 01 09:24:54
  TRACK 435 AUDIO
    TITLE "LR_black_phrase_E_07_435"
    INDEX 01 09:26:12
  TRACK 436 AUDIO
    TITLE "LR_black_phrase_E_07_436"
    INDEX 01 09:26:37
  TRACK 437 AUDIO
    TITLE "LR_black_phrase_E_07_437"
    INDEX 01 09:28:75
  TRACK 438 AUDIO
    TITLE "LR_black_phrase_E_07_438"
    INDEX 01 09:29:51
  TRACK 439 AUDIO
    TITLE "LR_black_phrase_E_07_439"
    INDEX 01 09:32:12
  TRACK 440 AUDIO
    TITLE "LR_black_phrase_E_07_440"
    INDEX 01 09:33:12
  TRACK 441 AUDIO
    TITLE "LR_black_phrase_E_07_441"
    INDEX 01 09:34:27
  TRACK 442 AUDIO
    TITLE "LR_black_phrase_E_07_442"
    INDEX 01 09:34:51
  TRACK 443 AUDIO
    TITLE "LR_black_phrase_E_07_443"
    INDEX 01 09:36:59
  TRACK 444 AUDIO
    TITLE "LR_black_phrase_E_07_444"
    INDEX 01 09:37:35
  TRACK 445 AUDIO
    TITLE "LR_black_phrase_E_07_445"
    INDEX 01 09:39:44
  TRACK 446 AUDIO
    TITLE "LR_black_phrase_E_07_446"
    INDEX 01 09:40:45
  TRACK 447 AUDIO
    TITLE "LR_black_phrase_E_07_447"
    INDEX 01 09:41:64
  TRACK 448 AUDIO
    TITLE "LR_black_phrase_E_07_448"
    INDEX 01 09:42:13
  TRACK 449 AUDIO
    TITLE "LR_black_phrase_E_07_449"
    INDEX 01 09:44:73
  TRACK 450 AUDIO
    TITLE "LR_black_phrase_E_07_450"
    INDEX 01 09:45:45
  TRACK 451 AUDIO
    TITLE "LR_black_phrase_E_07_451"
    INDEX 01 09:48:31
  TRACK 452 AUDIO
    TITLE "LR_black_phrase_E_07_452"
    INDEX 01 09:49:25
  TRACK 453 AUDIO
    TITLE "LR_black_phrase_E_07_453"
    INDEX 01 09:50:40
  TRACK 454 AUDIO
    TITLE "LR_black_phrase_E_07_454"
    INDEX 01 09:50:59
  TRACK 455 AUDIO
    TITLE "LR_black_phrase_E_07_455"
    INDEX 01 09:52:70
  TRACK 456 AUDIO
    TITLE "LR_black_phrase_E_07_456"
    INDEX 01 09:53:40
  TRACK 457 AUDIO
    TITLE "LR_black_phrase_E_07_457"
    INDEX 01 09:55:51
  TRACK 458 AUDIO
    TITLE "LR_black_phrase_E_07_458"
    INDEX 01 09:56:48
  TRACK 459 AUDIO
    TITLE "LR_black_phrase_E_07_459"
    INDEX 01 09:57:54
  TRACK 460 AUDIO
    TITLE "LR_black_phrase_E_07_460"
    INDEX 01 09:58:02
  TRACK 461 AUDIO
    TITLE "LR_black_phrase_E_07_461"
    INDEX 01 09:59:74
  TRACK 462 AUDIO
    TITLE "LR_black_phrase_E_07_462"
    INDEX 01 10:00:46
  TRACK 463 AUDIO
    TITLE "LR_black_phrase_E_07_463"
    INDEX 01 10:02:47
  TRACK 464 AUDIO
    TITLE "LR_black_phrase_E_07_464"
    INDEX 01 10:03:46
  TRACK 465 AUDIO
    TITLE "LR_black_phrase_E_07_465"
    INDEX 01 10:05:12
  TRACK 466 AUDIO
    TITLE "LR_black_phrase_E_07_466"
    INDEX 01 10:05:34
  TRACK 467 AUDIO
    TITLE "LR_black_phrase_E_07_467"
    INDEX 01 10:08:16
  TRACK 468 AUDIO
    TITLE "LR_black_phrase_E_07_468"
    INDEX 01 10:08:61
  TRACK 469 AUDIO
    TITLE "LR_black_phrase_E_07_469"
    INDEX 01 10:11:46
  TRACK 470 AUDIO
    TITLE "LR_black_phrase_E_07_470"
    INDEX 01 10:12:43
  TRACK 471 AUDIO
    TITLE "LR_black_phrase_E_07_471"
    INDEX 01 10:13:49
  TRACK 472 AUDIO
    TITLE "LR_black_phrase_E_07_472"
    INDEX 01 10:13:72
  TRACK 473 AUDIO
    TITLE "LR_black_phrase_E_07_473"
    INDEX 01 10:16:43
  TRACK 474 AUDIO
    TITLE "LR_black_phrase_E_07_474"
    INDEX 01 10:17:17
  TRACK 475 AUDIO
    TITLE "LR_black_phrase_E_07_475"
    INDEX 01 10:19:63
  TRACK 476 AUDIO
    TITLE "LR_black_phrase_E_07_476"
    INDEX 01 10:20:60
  TRACK 477 AUDIO
    TITLE "LR_black_phrase_E_07_477"
    INDEX 01 10:22:07
  TRACK 478 AUDIO
    TITLE "LR_black_phrase_E_07_478"
    INDEX 01 10:22:22
  TRACK 479 AUDIO
    TITLE "LR_black_phrase_E_07_479"
    INDEX 01 10:24:11
  TRACK 480 AUDIO
    TITLE "LR_black_phrase_E_07_480"
    INDEX 01 10:24:56
  TRACK 481 AUDIO
    TITLE "LR_black_phrase_E_07_481"
    INDEX 01 10:26:47
  TRACK 482 AUDIO
    TITLE "LR_black_phrase_E_07_482"
    INDEX 01 10:27:49
  TRACK 483 AUDIO
    TITLE "LR_black_phrase_E_07_483"
    INDEX 01 10:28:68
  TRACK 484 AUDIO
    TITLE "LR_black_phrase_E_07_484"
    INDEX 01 10:29:22
  TRACK 485 AUDIO
    TITLE "LR_black_phrase_E_07_485"
    INDEX 01 10:31:43
  TRACK 486 AUDIO
    TITLE "LR_black_phrase_E_07_486"
    INDEX 01 10:32:25
  TRACK 487 AUDIO
    TITLE "LR_black_phrase_E_07_487"
    INDEX 01 10:34:45
  TRACK 488 AUDIO
    TITLE "LR_black_phrase_E_07_488"
    INDEX 01 10:35:52
  TRACK 489 AUDIO
    TITLE "LR_black_phrase_E_07_489"
    INDEX 01 10:37:02
  TRACK 490 AUDIO
    TITLE "LR_black_phrase_E_07_490"
    INDEX 01 10:37:34
  TRACK 491 AUDIO
    TITLE "LR_black_phrase_E_07_491"
    INDEX 01 10:39:72
  TRACK 492 AUDIO
    TITLE "LR_black_phrase_E_07_492"
    INDEX 01 10:40:53
  TRACK 493 AUDIO
    TITLE "LR_black_phrase_E_07_493"
    INDEX 01 10:43:16
  TRACK 494 AUDIO
    TITLE "LR_black_phrase_E_07_494"
    INDEX 01 10:44:22
  TRACK 495 AUDIO
    TITLE "LR_black_phrase_E_07_495"
    INDEX 01 10:45:47
  TRACK 496 AUDIO
    TITLE "LR_black_phrase_E_07_496"
    INDEX 01 10:46:03
  TRACK 497 AUDIO
    TITLE "LR_black_phrase_E_07_497"
    INDEX 01 10:48:51
  TRACK 498 AUDIO
    TITLE "LR_black_phrase_E_07_498"
    INDEX 01 10:49:31
  TRACK 499 AUDIO
    TITLE "LR_black_phrase_E_07_499"
    INDEX 01 10:52:02
  TRACK 500 AUDIO
    TITLE "LR_black_phrase_E_07_500"
    INDEX 01 10:53:07
  TRACK 501 AUDIO
    TITLE "LR_black_phrase_E_07_501"
    INDEX 01 10:54:34
  TRACK 502 AUDIO
    TITLE "LR_black_phrase_E_07_502"
    INDEX 01 10:54:65
  TRACK 503 AUDIO
    TITLE "LR_black_phrase_E_07_503"
    INDEX 01 10:57:19
  TRACK 504 AUDIO
    TITLE "LR_black_phrase_E_07_504"
    INDEX 01 10:57:71
  TRACK 505 AUDIO
    TITLE "LR_black_phrase_E_07_505"
    INDEX 01 11:00:25
  TRACK 506 AUDIO
    TITLE "LR_black_phrase_E_07_506"
    INDEX 01 11:01:30
  TRACK 507 AUDIO
    TITLE "LR_black_phrase_E_07_507"
    INDEX 01 11:02:51
  TRACK 508 AUDIO
    TITLE "LR_black_phrase_E_07_508"
    INDEX 01 11:03:03
  TRACK 509 AUDIO
    TITLE "LR_black_phrase_E_07_509"
    INDEX 01 11:05:06
  TRACK 510 AUDIO
    TITLE "LR_black_phrase_E_07_510"
    INDEX 01 11:05:59
  TRACK 511 AUDIO
    TITLE "LR_black_phrase_E_07_511"
    INDEX 01 11:07:66
  TRACK 512 AUDIO
    TITLE "LR_black_phrase_E_07_512"
    INDEX 01 11:08:67
  TRACK 513 AUDIO
    TITLE "LR_black_phrase_E_07_513"
    INDEX 01 11:10:07
  TRACK 514 AUDIO
    TITLE "LR_black_phrase_E_07_514"
    INDEX 01 11:10:29
  TRACK 515 AUDIO
    TITLE "LR_black_phrase_E_07_515"
    INDEX 01 11:12:14
  TRACK 516 AUDIO
    TITLE "LR_black_phrase_E_07_516"
    INDEX 01 11:12:63
  TRACK 517 AUDIO
    TITLE "LR_black_phrase_E_07_517"
    INDEX 01 11:14:46
  TRACK 518 AUDIO
    TITLE "LR_black_phrase_E_07_518"
    INDEX 01 11:15:52
  TRACK 519 AUDIO
    TITLE "LR_black_phrase_E_07_519"
    INDEX 01 11:16:53
  TRACK 520 AUDIO
    TITLE "LR_black_phrase_E_07_520"
    INDEX 01 11:17:10
  TRACK 521 AUDIO
    TITLE "LR_black_phrase_E_07_521"
    INDEX 01 11:18:54
  TRACK 522 AUDIO
    TITLE "LR_black_phrase_E_07_522"
    INDEX 01 11:19:32
  TRACK 523 AUDIO
    TITLE "LR_black_phrase_E_07_523"
    INDEX 01 11:21:03
  TRACK 524 AUDIO
    TITLE "LR_black_phrase_E_07_524"
    INDEX 01 11:22:07
  TRACK 525 AUDIO
    TITLE "LR_black_phrase_E_07_525"
    INDEX 01 11:23:39
  TRACK 526 AUDIO
    TITLE "LR_black_phrase_E_07_526"
    INDEX 01 11:23:71
  TRACK 527 AUDIO
    TITLE "LR_black_phrase_E_07_527"
    INDEX 01 11:25:64
  TRACK 528 AUDIO
    TITLE "LR_black_phrase_E_07_528"
    INDEX 01 11:26:42
  TRACK 529 AUDIO
    TITLE "LR_black_phrase_E_07_529"
    INDEX 01 11:28:39
  TRACK 530 AUDIO
    TITLE "LR_black_phrase_E_07_530"
    INDEX 01 11:29:42
  TRACK 531 AUDIO
    TITLE "LR_black_phrase_E_07_531"
    INDEX 01 11:30:53
  TRACK 532 AUDIO
    TITLE "LR_black_phrase_E_07_532"
    INDEX 01 11:31:08
  TRACK 533 AUDIO
    TITLE "LR_black_phrase_E_07_533"
    INDEX 01 11:33:26
  TRACK 534 AUDIO
    TITLE "LR_black_phrase_E_07_534"
    INDEX 01 11:34:10
  TRACK 535 AUDIO
    TITLE "LR_black_phrase_E_07_535"
    INDEX 01 11:36:26
  TRACK 536 AUDIO
    TITLE "LR_black_phrase_E_07_536"
    INDEX 01 11:37:32
  TRACK 537 AUDIO
    TITLE "LR_black_phrase_E_07_537"
    INDEX 01 11:38:45
  TRACK 538 AUDIO
    TITLE "LR_black_phrase_E_07_538"
    INDEX 01 11:38:74
  TRACK 539 AUDIO
    TITLE "LR_black_phrase_E_07_539"
    INDEX 01 11:41:30
  TRACK 540 AUDIO
    TITLE "LR_black_phrase_E_07_540"
    INDEX 01 11:42:07
  TRACK 541 AUDIO
    TITLE "LR_black_phrase_E_07_541"
    INDEX 01 11:44:36
  TRACK 542 AUDIO
    TITLE "LR_black_phrase_E_07_542"
    INDEX 01 11:45:37
  TRACK 543 AUDIO
    TITLE "LR_black_phrase_E_07_543"
    INDEX 01 11:46:50
  TRACK 544 AUDIO
    TITLE "LR_black_phrase_E_07_544"
    INDEX 01 11:46:72
  TRACK 545 AUDIO
    TITLE "LR_black_phrase_E_07_545"
    INDEX 01 11:49:53
  TRACK 546 AUDIO
    TITLE "LR_black_phrase_E_07_546"
    INDEX 01 11:50:19
  TRACK 547 AUDIO
    TITLE "LR_black_phrase_E_07_547"
    INDEX 01 11:52:74
  TRACK 548 AUDIO
    TITLE "LR_black_phrase_E_07_548"
    INDEX 01 11:53:68
  TRACK 549 AUDIO
    TITLE "LR_black_phrase_E_07_549"
    INDEX 01 11:55:12
  TRACK 550 AUDIO
    TITLE "LR_black_phrase_E_07_550"
    INDEX 01 11:55:36
  TRACK 551 AUDIO
    TITLE "LR_black_phrase_E_07_551"
    INDEX 01 11:58:08
  TRACK 552 AUDIO
    TITLE "LR_black_phrase_E_07_552"
    INDEX 01 11:58:59
  TRACK 553 AUDIO
    TITLE "LR_black_phrase_E_07_553"
    INDEX 01 12:01:34
  TRACK 554 AUDIO
    TITLE "LR_black_phrase_E_07_554"
    INDEX 01 12:02:36
  TRACK 555 AUDIO
    TITLE "LR_black_phrase_E_07_555"
    INDEX 01 12:03:47
  TRACK 556 AUDIO
    TITLE "LR_black_phrase_E_07_556"
    INDEX 01 12:03:70
  TRACK 557 AUDIO
    TITLE "LR_black_phrase_E_07_557"
    INDEX 01 12:06:31
  TRACK 558 AUDIO
    TITLE "LR_black_phrase_E_07_558"
    INDEX 01 12:07:05
  TRACK 559 AUDIO
    TITLE "LR_black_phrase_E_07_559"
    INDEX 01 12:09:42
  TRACK 560 AUDIO
    TITLE "LR_black_phrase_E_07_560"
    INDEX 01 12:10:39
  TRACK 561 AUDIO
    TITLE "LR_black_phrase_E_07_561"
    INDEX 01 12:11:48
  TRACK 562 AUDIO
    TITLE "LR_black_phrase_E_07_562"
    INDEX 01 12:11:70
  TRACK 563 AUDIO
    TITLE "LR_black_phrase_E_07_563"
    INDEX 01 12:13:59
  TRACK 564 AUDIO
    TITLE "LR_black_phrase_E_07_564"
    INDEX 01 12:14:33
  TRACK 565 AUDIO
    TITLE "LR_black_phrase_E_07_565"
    INDEX 01 12:16:20
  TRACK 566 AUDIO
    TITLE "LR_black_phrase_E_07_566"
    INDEX 01 12:17:21
  TRACK 567 AUDIO
    TITLE "LR_black_phrase_E_07_567"
    INDEX 01 12:18:31
  TRACK 568 AUDIO
    TITLE "LR_black_phrase_E_07_568"
    INDEX 01 12:18:54
  TRACK 569 AUDIO
    TITLE "LR_black_phrase_E_07_569"
    INDEX 01 12:21:11
  TRACK 570 AUDIO
    TITLE "LR_black_phrase_E_07_570"
    INDEX 01 12:21:62
  TRACK 571 AUDIO
    TITLE "LR_black_phrase_E_07_571"
    INDEX 01 12:24:18
  TRACK 572 AUDIO
    TITLE "LR_black_phrase_E_07_572"
    INDEX 01 12:25:19
  TRACK 573 AUDIO
    TITLE "LR_black_phrase_E_07_573"
    INDEX 01 12:26:46
  TRACK 574 AUDIO
    TITLE "LR_black_phrase_E_07_574"
    INDEX 01 12:26:67
  TRACK 575 AUDIO
    TITLE "LR_black_phrase_E_07_575"
    INDEX 01 12:28:62
  TRACK 576 AUDIO
    TITLE "LR_black_phrase_E_07_576"
    INDEX 01 12:29:33
  TRACK 577 AUDIO
    TITLE "LR_black_phrase_E_07_577"
    INDEX 01 12:31:28
  TRACK 578 AUDIO
    TITLE "LR_black_phrase_E_07_578"
    INDEX 01 12:32:23
  TRACK 579 AUDIO
    TITLE "LR_black_phrase_E_07_579"
    INDEX 01 12:33:40
  TRACK 580 AUDIO
    TITLE "LR_black_phrase_E_07_580"
    INDEX 01 12:33:62
  TRACK 581 AUDIO
    TITLE "LR_black_phrase_E_07_581"
    INDEX 01 12:35:41
  TRACK 582 AUDIO
    TITLE "LR_black_phrase_E_07_582"
    INDEX 01 12:36:11
  TRACK 583 AUDIO
    TITLE "LR_black_phrase_E_07_583"
    INDEX 01 12:37:65
  TRACK 584 AUDIO
    TITLE "LR_black_phrase_E_07_584"
    INDEX 01 12:38:63
  TRACK 585 AUDIO
    TITLE "LR_black_phrase_E_07_585"
    INDEX 01 12:40:01
  TRACK 586 AUDIO
    TITLE "LR_black_phrase_E_07_586"
    INDEX 01 12:40:25
  TRACK 587 AUDIO
    TITLE "LR_black_phrase_E_07_587"
    INDEX 01 12:42:21
  TRACK 588 AUDIO
    TITLE "LR_black_phrase_E_07_588"
    INDEX 01 12:42:70
  TRACK 589 AUDIO
    TITLE "LR_black_phrase_E_07_589"
    INDEX 01 12:44:69
  TRACK 590 AUDIO
    TITLE "LR_black_phrase_E_07_590"
    INDEX 01 12:45:69
  TRACK 591 AUDIO
    TITLE "LR_black_phrase_E_07_591"
    INDEX 01 12:47:05
  TRACK 592 AUDIO
    TITLE "LR_black_phrase_E_07_592"
    INDEX 01 12:47:27
  TRACK 593 AUDIO
    TITLE "LR_black_phrase_E_07_593"
    INDEX 01 12:49:45
  TRACK 594 AUDIO
    TITLE "LR_black_phrase_E_07_594"
    INDEX 01 12:50:15
  TRACK 595 AUDIO
    TITLE "LR_black_phrase_E_07_595"
    INDEX 01 12:52:32
  TRACK 596 AUDIO
    TITLE "LR_black_phrase_E_07_596"
    INDEX 01 12:53:27
  TRACK 597 AUDIO
    TITLE "LR_black_phrase_E_07_597"
    INDEX 01 12:54:60
  TRACK 598 AUDIO
    TITLE "LR_black_phrase_E_07_598"
    INDEX 01 12:55:12
  TRACK 599 AUDIO
    TITLE "LR_black_phrase_E_07_599"
    INDEX 01 12:57:39
  TRACK 600 AUDIO
    TITLE "LR_black_phrase_E_07_600"
    INDEX 01 12:58:15
  TRACK 601 AUDIO
    TITLE "LR_black_phrase_E_07_601"
    INDEX 01 13:00:43
